<?xml version="1.0" encoding="utf-8"?>
<!-- Generator: Adobe Illustrator 26.5.0, SVG Export Plug-In . SVG Version: 6.00 Build 0)  -->
<svg version="1.1" id="Layer_2_00000029724227209454876880000010439813723262743436_"
	 xmlns="http://www.w3.org/2000/svg" xmlns:xlink="http://www.w3.org/1999/xlink" x="0px" y="0px" viewBox="0 0 929.7 160.9"
	 style="enable-background:new 0 0 929.7 160.9;" xml:space="preserve">
<style type="text/css">
	.st0{fill:#F0EB8D;}
</style>
<g id="Layer_1-2">
	<g>
		<g>
			<path class="st0" d="M610.8,81.5c0,0.3-0.3,0.7-0.4,0.9l-0.2,0.3l-0.4,0.5c-0.3,0.6-1.9,2.5-2.3,3.1
				c-29.5,37.8-74.7,68.7-123.2,73.9c-30.3,3.1-60-7.4-86.2-21.6c-15.1-8.1-29.7-17.3-43.6-27.4c-12.4-9.1-24.6-18.5-35.5-29.4
				c18.4-23.4,41.2-43.3,67.1-58.1c29.6-17.2,64-27.5,98.4-22.7c48.9,7,92.6,37.6,123,75.5l1.6,2.1l0.8,1l0.4,0.5
				C610.4,80.7,610.7,81.1,610.8,81.5L610.8,81.5L610.8,81.5z M608.8,81.5c-0.1,0.1-0.1,0.3,0,0.4c0,0.1,0,0.1,0,0l-0.2-0.2
				c-0.8-0.7-2.6-2.1-3.5-2.8c-24.7-19.4-51.8-36.5-81.3-47.4c-66.6-25.2-124.7-0.9-178.4,40.8c-5.1,4-10.3,8.3-15,12.7v-7.3
				c19,23.1,43.2,42.4,70.7,54.4c45.9,19.8,96.8,13.5,140.8-8.3c23-11.2,44.9-25.8,65.2-41.6l1-0.8l0.5-0.4l0.2-0.2c0,0,0,0,0,0
				C608.7,81.2,608.7,81.4,608.8,81.5L608.8,81.5L608.8,81.5z"/>
			<path class="st0" d="M517.3,81.5c-39.4,7.2-45.3,13.1-52.5,52.5c-7.2-39.4-13.1-45.3-52.5-52.5c39.4-7.2,45.3-13.1,52.5-52.5
				C472.1,68.4,478,74.3,517.3,81.5z"/>
			<g>
				<path class="st0" d="M799.7,80.4C772.5,83.8,698,86.5,693,104.8c-5-18.3-9.1-21-36.3-24.4C683.9,77.1,688,74.3,693,56
					C698,74.3,772.5,77.1,799.7,80.4z"/>
				<path class="st0" d="M130,80.4c27.2,3.4,101.7,6.1,106.7,24.4c5-18.3,9.1-21,36.3-24.4c-27.2-3.4-31.3-6.1-36.3-24.4
					C231.7,74.3,157.2,77.1,130,80.4L130,80.4z"/>
			</g>
		</g>
		<g>
			<path class="st0" d="M843.4,80.4c0,1.9,39.4,3.4,41.3,3.4s3.4-1.5,3.4-3.4s-1.5-3.4-3.4-3.4S843.4,78.6,843.4,80.4z"/>
			<path class="st0" d="M86.3,80.4c0,1.9-39.4,3.4-41.3,3.4s-3.4-1.5-3.4-3.4S43.1,77,45,77S86.3,78.6,86.3,80.4z"/>
		</g>
		<g>
			<circle class="st0" cx="925" cy="80.4" r="4.7"/>
			<circle class="st0" cx="4.7" cy="80.4" r="4.7"/>
		</g>
	</g>
</g>
</svg>
